<svg width="82" height="38" fill="none" xmlns="http://www.w3.org/2000/svg"><g clip-path="url(#a)"><path fill-rule="evenodd" clip-rule="evenodd" d="m20.349 30.945 1.063 5.261S11.579 37.211.474 31.058l-.008-.5 14.752.16.02-1.055 5.111 1.282Z" fill="url(#b)"/><path fill-rule="evenodd" clip-rule="evenodd" d="m19.93 6.847.916-5.437S10.985.726.086 7.237l.009.5 14.739-.64.053 1.053 5.043-1.303Z" fill="url(#c)"/><path fill-rule="evenodd" clip-rule="evenodd" d="M77.344 17.942C77.233 11.11 60.537.68 45.184 1.795c-15.355 1.117-37.815 8.53-37.815 8.53l.056 8.751.229 8.749s22.69 6.681 38.071 7.295c15.382.62 31.73-10.393 31.62-17.178Z" fill="url(#d)"/><path fill-rule="evenodd" clip-rule="evenodd" d="M7.37 10.325s1.048 9.946.284 17.503c0 0-1.13-9.758-.285-17.503Z" fill="#31165F"/><path fill-rule="evenodd" clip-rule="evenodd" d="M70.239 8.878s3.236 9.63-.496 18.9c0 0 7.635-4.875 7.601-9.836-.032-4.461-7.105-9.064-7.105-9.064Z" fill="url(#e)"/><path d="M69.666 27.747c3.568-8.624.521-18.745.493-18.844l.16-.05c.031.103 3.092 10.277-.498 18.958l-.155-.064Z" fill="#53345F"/><path fill-rule="evenodd" clip-rule="evenodd" d="m76.761 15.652-.174 5.122s1.815-2.626.174-5.122Z" fill="#53345F"/><path fill-rule="evenodd" clip-rule="evenodd" d="M77.02 16.359s.277 1.37.121 2.877c0 0 2.433-.603 2.503-1.482.072-.875-2.623-1.395-2.623-1.395Z" fill="url(#f)"/><path opacity=".5" fill-rule="evenodd" clip-rule="evenodd" d="M22.223 6.036s5.098 14.685 1.867 25.92c-6.44-1.35-16.436-4.125-16.436-4.125s.835-6.703-.285-17.503c0-.003 7.367-2.84 14.854-4.292Z" fill="url(#g)"/><path opacity=".5" fill-rule="evenodd" clip-rule="evenodd" d="M66.227 17.552c-.583-6.157-8.025-10.427-14.46-10.606-6.436-.175-10.269 5.746-9.99 11.992.28 6.245 4.676 11.352 11.708 10.52 6.35-.747 13.385-5.073 12.742-11.906Z" fill="url(#h)"/><path fill-rule="evenodd" clip-rule="evenodd" d="M67.247 17.535C66.665 11.38 59.222 7.11 52.787 6.93c-6.435-.176-10.268 5.746-9.99 11.991.28 6.245 4.677 11.352 11.708 10.52 6.354-.747 13.389-5.072 12.742-11.906Z" fill="#31165F"/><path fill-rule="evenodd" clip-rule="evenodd" d="M67.963 17.524c-.582-6.157-8.025-10.427-14.46-10.606-6.435-.176-10.268 5.746-9.99 11.991.28 6.245 4.677 11.353 11.708 10.52 6.35-.747 13.385-5.072 12.742-11.905Z" fill="url(#i)"/><path fill-rule="evenodd" clip-rule="evenodd" d="M65.684 17.968c-.43-5.519-6.264-8.193-11.29-8.332-5.023-.138-8.016 4.515-7.799 9.423.217 4.909 3.653 8.92 9.138 8.27 4.964-.591 10.4-3.596 9.952-9.361Z" fill="#A6345F"/><path fill-rule="evenodd" clip-rule="evenodd" d="m48.483 24.197-.004-.003-.006-.007c-1.077-1.393-1.702-3.199-1.791-5.156-.207-4.671 2.93-9.527 7.712-9.395 1.607.048 3.253.381 4.752 1.02 2.966 1.25 5.351 3.678 5.706 7.339.523 5.41-4.748 8.345-9.47 8.906-3.034.36-5.405-.776-6.9-2.704Z" fill="url(#j)"/><path d="m42.798 18.958-.002-.167-17.857.29.002.167 17.857-.29Z" fill="#53345F"/><path d="m22.143 6.06.16-.049c5.183 16.82 1.897 25.882 1.865 25.973l-.155-.058c.032-.09 3.296-9.106-1.87-25.866ZM28.08 4.642l.14-.095c.034.05 3.525 5.224 4.178 14.49l-.167.013c-.649-9.22-4.116-14.358-4.15-14.408Z" fill="#53345F"/><path fill-rule="evenodd" clip-rule="evenodd" d="m12.125 21.412 7.701-.372.57 2.093-8.245-.073-.026-1.648Z" fill="#31165F"/><path fill-rule="evenodd" clip-rule="evenodd" d="M7.236 11.775s.86 7.59.315 15.05l-3.46-.394.15-14.187 2.995-.469Z" fill="url(#k)"/><path opacity=".5" fill-rule="evenodd" clip-rule="evenodd" d="M5.72 12.013s1.44 2.546 1.422 5.963c-.018 3.414-2.25 8.549-2.25 8.549l2.659.304s.66-8.133-.315-15.05l-1.516.234Z" fill="#31165F"/><path d="M62.795 21.418s-1.163 1.32-3.386 2.508l.712 1.176s2.187-.946 2.935-2.66l-.26-1.024ZM52.863 11.383l-1.718 1.006-.598-.968 1.438-.731.878.693Z" fill="#fff"/><path opacity=".5" fill-rule="evenodd" clip-rule="evenodd" d="M67.085 6.947s5.166 9.606.38 22.287l2.275-1.459s3.304-7.334.495-18.9l-3.15-1.928Z" fill="url(#l)"/><path d="M30.592 18.075a.548.548 0 1 0 1.095-.02.548.548 0 0 0-1.095.02Z" fill="url(#m)"/><path fill-rule="evenodd" clip-rule="evenodd" d="M31.147 18.5a.432.432 0 0 1-.438-.423.432.432 0 0 1 .863-.014.43.43 0 0 1-.425.437Z" fill="url(#n)"/><path d="M33.302 18.031a.548.548 0 1 0 1.096-.02.548.548 0 0 0-1.096.02Z" fill="url(#o)"/><path fill-rule="evenodd" clip-rule="evenodd" d="M33.858 18.456a.432.432 0 0 1-.44-.423.432.432 0 0 1 .864-.015.43.43 0 0 1-.424.438Z" fill="url(#p)"/><path fill-rule="evenodd" clip-rule="evenodd" d="M52.189 9.252a.548.548 0 1 1-.019-1.097.548.548 0 0 1 .019 1.097Z" fill="#31165F"/><path fill-rule="evenodd" clip-rule="evenodd" d="M52.187 9.135a.432.432 0 0 1-.439-.423.432.432 0 0 1 .864-.014.432.432 0 0 1-.425.437Z" fill="url(#q)"/><path d="M59.423 9.548a.548.548 0 1 0 1.096-.02.548.548 0 0 0-1.096.02Z" fill="#31165F"/><path fill-rule="evenodd" clip-rule="evenodd" d="M59.978 9.97a.432.432 0 0 1-.438-.424.432.432 0 0 1 .863-.014.432.432 0 0 1-.425.437Z" fill="url(#r)"/><path fill-rule="evenodd" clip-rule="evenodd" d="M46.13 14.479a.548.548 0 0 1-.559-.538.548.548 0 1 1 .558.538Z" fill="#31165F"/><path fill-rule="evenodd" clip-rule="evenodd" d="M46.127 14.362a.432.432 0 0 1-.438-.423.432.432 0 0 1 .863-.014.428.428 0 0 1-.425.437Z" fill="url(#s)"/><path fill-rule="evenodd" clip-rule="evenodd" d="M45.608 22.973a.548.548 0 1 1-.019-1.097.548.548 0 0 1 .02 1.097Z" fill="#31165F"/><path fill-rule="evenodd" clip-rule="evenodd" d="M45.606 22.856a.432.432 0 0 1-.438-.423.432.432 0 0 1 .863-.014.432.432 0 0 1-.425.437Z" fill="url(#t)"/><path fill-rule="evenodd" clip-rule="evenodd" d="M50.828 28.634a.548.548 0 1 1-.019-1.097.548.548 0 0 1 .019 1.097Z" fill="#31165F"/><path fill-rule="evenodd" clip-rule="evenodd" d="M50.826 28.517a.432.432 0 0 1-.439-.423.432.432 0 0 1 .863-.014.428.428 0 0 1-.424.437Z" fill="url(#u)"/><path fill-rule="evenodd" clip-rule="evenodd" d="M60.55 27.595a.548.548 0 1 1-.02-1.097.548.548 0 0 1 .02 1.096Z" fill="#31165F"/><path fill-rule="evenodd" clip-rule="evenodd" d="M60.548 27.478a.432.432 0 0 1-.439-.424.432.432 0 0 1 .863-.014.428.428 0 0 1-.424.438Z" fill="url(#v)"/><path d="M64.944 22.658a.548.548 0 1 0 1.096-.02.548.548 0 0 0-1.096.02Z" fill="#31165F"/><path fill-rule="evenodd" clip-rule="evenodd" d="M65.5 23.08a.432.432 0 0 1-.439-.424.432.432 0 0 1 .863-.014.432.432 0 0 1-.424.438Z" fill="url(#w)"/><path d="M65.612 15.377a.548.548 0 1 0 1.096-.02.548.548 0 0 0-1.096.02Z" fill="#31165F"/><path fill-rule="evenodd" clip-rule="evenodd" d="M66.168 15.798a.432.432 0 0 1-.439-.423.432.432 0 0 1 .864-.014.432.432 0 0 1-.425.437Z" fill="url(#x)"/><path fill-rule="evenodd" clip-rule="evenodd" d="m.098 7.737.007.404 14.752-.644-.023-.4-14.736.64ZM15.218 30.715l.01-.4-14.763-.03.004.27 14.749.16Z" fill="#6F2561"/><path fill-rule="evenodd" clip-rule="evenodd" d="m23.51 22.642.024 1.44L.347 23.02.33 22.015l23.18.627Z" fill="url(#y)"/><path fill-rule="evenodd" clip-rule="evenodd" d="m23.51 22.642-5.145-.92-18.035.293 23.18.627Z" fill="#FF4C61"/><path opacity=".5" fill-rule="evenodd" clip-rule="evenodd" d="M22.82 24.051 7.654 27.828l.134-3.489-3.678.017-.019-1.165 18.73.86Z" fill="#31165F"/><path d="M62.644 5.922s1.59-.17 2.59.822l-.027.821s-1.48-.616-2.557-1.236l-.006-.407ZM27.998 31.888l6.914 1.396.007.424-6.912-1.323-.009-.497Z" fill="#fff"/><path fill-rule="evenodd" clip-rule="evenodd" d="M58.853 33.135s.57 2.54-2.458.73l2.458-.73Z" fill="url(#z)"/><path fill-rule="evenodd" clip-rule="evenodd" d="M58.714 3.45s-.74-2.35-2.38-.645l2.38.645Z" fill="url(#A)"/><path opacity=".5" fill-rule="evenodd" clip-rule="evenodd" d="M7.66 12.793s20.3-6.91 35.492-9.734l-.328-.639S19.503 5.893 7.405 10.675l.255 2.118Z" fill="#fff"/><path fill-rule="evenodd" clip-rule="evenodd" d="m36.482 33.492 4.258.688.007.4-4.259-.688-.006-.4ZM29.154 7.06s2.025 4.329 2.494 8.479c0 0-.994-4.125-2.494-8.478ZM41.134 19.105l-15.65.361c0-.003 5.682.178 15.65-.361ZM22.923 9.18s3.23 10.342 1.429 20.332c0 0 1.697-7.416-1.429-20.331ZM64.062 10.83s-.549 1.424 2.118 2.211c0 0-1.02-1.384-2.118-2.21ZM43.621 20.149s.233 3.396 3.995 7.36c.004-.001-3.408-2.358-3.995-7.36ZM46.588 18.813S45.037 21.808 48 23.788c0 .003-1.438-1.552-1.413-4.975Z" fill="#fff"/><g opacity=".36" fill-rule="evenodd" clip-rule="evenodd" fill="#fff"><path opacity=".36" d="M39.877 18.345c-.124-.175-.296-.51-.563-.448-.123.028-.23.103-.35.145a1.59 1.59 0 0 1-.326.072c-.15.016-.383.1-.495.209-.086.081.006.166.09.222.092.058.186.12.297.122.144.004.284.008.426.043.053.012.104.055.158.064.074.016.157.008.23.006.165-.012.474-.138.533-.435ZM37.623 17.664c.074-.025.134-.012.185.037-.002.264-.52.362-.627.117-.122-.282.269-.325.44-.24l.002.086ZM34.205 12.874c.07.136.162.248.13.402a.577.577 0 0 1-.198.32c-.123.11-.276.155-.429.204-.076.025-.146.063-.223.04-.313-.078-.536-.428-.631-.707-.053-.162-.116-.311-.132-.481a3.965 3.965 0 0 0-.052-.346c-.019-.097-.06-.186-.035-.283a.74.74 0 0 1 .124-.226.7.7 0 0 1 .577-.303c.405.01.734.485.907.81.138.267.312.692-.038.57ZM34.778 14.13c-.118-.038-.152-.071-.214.023-.046.068-.04.161-.016.234.049.14.266.313.408.207.073-.054.201-.18.21-.27.014-.174-.237-.387-.39-.364l.002.17ZM30.912 19.461c-.067-.018-.114-.018-.184-.017l-.472.008c-.294.005-.593-.034-.887-.029-.215.004-.428.044-.639.077a5.765 5.765 0 0 0-.33.07c.007.026.061.028.088.038.084.035.175.057.253.096.178.093.364.187.55.268.033.016.073.018.104.041.037.03.075.07.112.102a.794.794 0 0 0 .22.14c.185.074.41.073.61.06.067-.004.133-.022.2-.027.074-.004.144-.005.218-.017.153-.025.3-.101.432-.18.155-.093.428-.2.468-.405.019-.097-.089-.132-.17-.147-.1-.019-.204-.017-.304-.029-.141-.017-.303-.061-.269-.049ZM32.307 19.649c.075.042.213.1.191.214-.021.11-.179.116-.266.104-.204-.026.005-.29.14-.276l-.065-.042ZM31.052 21.671c-.081-.035-.155-.067-.242-.049-.127.029-.175.123-.177.246-.003.187.046.317.24.35.121.022.3-.061.38-.15a.235.235 0 0 0 .06-.154c.009-.117-.086-.169-.174-.224l-.087-.019ZM25.225 25.98c.135.282.267.564.332.873.058.27.039.54.067.813.043.383.176.734.272 1.103.086.326.138.642.06.977-.06.251-.216.52-.452.645-.146.075-.31.118-.47.144-.076.011-.15.02-.223.027-.05.008-.08.025-.137.026-.074-.003-.074-.03-.075-.1a.586.586 0 0 1 .078-.34c.1-.176.147-.394.18-.595.035-.197.078-.388.098-.588.02-.198.04-.391.065-.589.02-.167.044-.334.068-.505.02-.167.018-.334.029-.5.008-.14-.008-.277.003-.418.009-.087.014-.17.013-.257a.994.994 0 0 1 .013-.2c.01-.067-.002-.13 0-.197 0-.043.03-.19.079-.318ZM26.479 27.752c-.038-.043-.069-.099-.123-.108a.262.262 0 0 0-.087.008c-.123.029-.126.239-.128.339.005.28.097.602.301.806.133.128.362.244.552.204.26-.057.406-.343.456-.584.046-.228.055-.545-.129-.719a.385.385 0 0 0-.236-.12c-.07-.005-.137.023-.207.024-.094.005-.175-.044-.268.004a.311.311 0 0 0-.131.146ZM26.486 29.437c.077-.018.087-.012.148.034.054.04.078.086.063.153-.026.107-.152.176-.25.13-.063-.029-.102-.111-.11-.181-.008-.08.048-.151.125-.18l.024.044ZM32.65 31.509c-.054-.116-.072-.156-.177-.214-.05-.03-.09-.045-.147-.018-.143.066-.284.248-.332.393a.438.438 0 0 0 .032.336c.049.086.154.154.228.217.068.059.143.11.217.16.129.088.274.155.42.063.129-.086.23-.26.217-.417a.715.715 0 0 0-.112-.309c-.062-.102-.097-.192-.345-.211ZM32.006 30.949a.64.64 0 0 1-.063.241c-.037-.003-.06.048-.103.032-.064-.023-.046-.126-.047-.176a.272.272 0 0 1 .071-.172c.017-.017.09-.088.093-.031l.049.106ZM26.937 23.424c-.098-.052-.206-.11-.312-.015-.095.088-.072.25-.02.357.027.056.055.12.119.125.067.005.137-.006.204-.004.16.001.273.16.425.014.063-.062.11-.186.093-.272-.033-.16-.202-.237-.34-.292l-.169.087ZM20.877 10.752a1.013 1.013 0 0 0-.265-.47c-.024.005-.047.005-.07.009-.125-.042-.252-.05-.368.016-.359.192-.309.569-.3.909.006.363-.027.828.48.653.229-.08.605-.194.745-.41.076-.114.038-.17-.004-.28-.06-.136-.112-.318-.218-.427ZM20.373 14.931c.101.056.293.136.312.276.016.116-.05.157-.11.242-.13.185-.298.365-.539.185a.491.491 0 0 1-.157-.41c.018-.121.165-.327.306-.29l.188-.002ZM52.61 31.858c-.28-.129-.297-.142-.576-.06-.21.063-.447.107-.608.266-.215.214-.157.497-.209.761-.04.208-.052.325.089.502.136.172.353.338.546.445.631.344 1.55.312 2.189.018.418-.194.899-.482 1.025-.96.107-.403.006-.862-.306-1.14-.316-.282-.773-.348-1.176-.255l-.287.085c-.123.019-.247.02-.37.016-.131.012-.25.087-.317.322ZM51.52 31.115c-.206.267-.17.23-.44.274-.117.019-.143.066-.254.044-.134-.028-.275-.226-.264-.366.009-.113.22-.29.303-.335.13-.072.203-.047.332.015l.323.368ZM51.151 4.507c-.232-.053-.507-.125-.657.134-.104.176.007.44.127.589.17.214.593.44.867.47.295.031.6-.324.63-.595.058-.548-.813-.824-1.225-.847l.258.25ZM48.609 4.168c.063-.03.248-.167.332-.145.037.009.048.056.075.072.111.065.21.14.235.266a.555.555 0 0 1-.28.625c-.157.093-.314.096-.447-.032-.142-.141-.214-.447-.04-.597l.125-.189ZM19.585 28.855c-.39-.177-.822-.15-1.242-.06-.27.058-.625.1-.74.39-.27.678 1.194 1.175 1.66 1.294.384.1.846.133 1.243.056.244-.047.726-.245.846-.484.155-.31-.047-.65-.291-.83-.566-.417-1.28-.296-1.92-.485l.444.12ZM19.677 28.503c-.015-.07-.043-.376-.115-.482-.052-.076-.13-.191-.218-.21-.124-.028-.246.064-.325.15-.05.053-.105.164-.07.24.024.06.112.112.166.148.095.069.203.113.314.162.05.022.102.051.159.06.09.016.12-.045.19-.066l-.101.002v-.004ZM16.117 28.184a4.708 4.708 0 0 1-.103.229c-.09-.015-.194.023-.252-.066-.041-.06-.047-.22-.022-.287.035-.1.111-.165.215-.163.12 0 .173.11.194.217l-.032.07ZM11.162 17.77c-.111-.034-.195-.046-.287.046-.129.132-.156.322-.04.464.158.198.51.409.776.348.167-.04.36-.26.257-.428-.051-.083-.123-.202-.195-.267-.126-.115-.314-.155-.478-.166h-.033v.004ZM67.275 25.233c-.075-.079-.099-.119-.203-.134-.114-.018-.228-.03-.334.04-.205.133-.337.462-.387.696a.627.627 0 0 0 .116.555c.148.195.327.319.572.348.255.033.438-.02.591-.243.121-.175.258-.418.288-.632.03-.2-.029-.337-.159-.485-.119-.138-.326-.311-.484-.145ZM66.514 27.017c.067.002.144-.012.162.06.025.094-.06.262-.122.323-.053.051-.175.106-.25.098-.06-.01-.11-.065-.145-.111-.062-.08-.073-.176-.024-.257.032-.057.104-.195.188-.173l.191.06ZM74.825 21.476c-.12-.001-.181.003-.284.068-.149.093-.277.235-.372.383-.12.193-.213.438-.186.667.016.164.206.32.36.342a.934.934 0 0 0 .606-.164c.291-.221.523-.615.483-.992-.04-.433-.686-.436-.607-.304ZM73.333 23.366a.337.337 0 0 1 .155-.1c.031.063.102.082.127.149.024.066.009.15-.024.207a.27.27 0 0 1-.221.154c-.11.008-.135-.035-.183-.124-.035-.066-.052-.08-.013-.15a.912.912 0 0 1 .095-.135l.064-.001Z"/></g><path fill-rule="evenodd" clip-rule="evenodd" d="M23.37 10.088c-.352.006-.64-.193-.643-.447-.005-.253.277-.461.628-.467.351-.006.639.196.643.446.004.254-.277.462-.628.468Z" fill="url(#B)"/><path d="M22.864 9.639c.003.199.229.357.504.352.276-.004.496-.17.493-.368-.003-.2-.23-.357-.505-.352-.275.004-.495.169-.492.368Z" fill="#fff"/><path fill-rule="evenodd" clip-rule="evenodd" d="M24.989 28.347c-.352.005-.64-.217-.644-.497-.005-.28.276-.512.627-.517.352-.006.64.216.644.496.005.28-.276.512-.627.518Z" fill="url(#C)"/><path fill-rule="evenodd" clip-rule="evenodd" d="M24.987 28.24c-.278.005-.501-.169-.505-.389-.003-.22.218-.4.492-.405.275-.004.502.169.505.389.004.22-.214.4-.492.405Z" fill="#fff"/><path fill-rule="evenodd" clip-rule="evenodd" d="M24.95 19.799a.635.635 0 1 1 .626-.645.635.635 0 0 1-.626.645Z" fill="url(#D)"/><path d="M24.441 19.173a.498.498 0 1 0 .996-.018.498.498 0 0 0-.996.018Z" fill="#fff"/><path d="M21.25 19.428a3.689 3.689 0 0 0 3.753 3.623 3.689 3.689 0 0 0 3.634-3.743 3.689 3.689 0 0 0-3.754-3.622 3.689 3.689 0 0 0-3.634 3.742Z" fill="url(#E)"/><path d="M59.13 36.443a2.953 2.953 0 0 1-3.84-1.615 2.938 2.938 0 0 1 1.62-3.83 2.953 2.953 0 0 1 3.842 1.615 2.935 2.935 0 0 1-1.621 3.83Z" fill="url(#F)"/><path d="M78.87 20.433a2.953 2.953 0 0 1-3.84-1.616 2.938 2.938 0 0 1 1.62-3.83 2.953 2.953 0 0 1 3.842 1.615 2.937 2.937 0 0 1-1.621 3.83Z" fill="url(#G)"/><path d="M58.315 4.23a1.519 1.519 0 1 1-1.147-2.814 1.519 1.519 0 1 1 1.147 2.814Z" fill="url(#H)"/><path d="M25.513 28.862a1.42 1.42 0 1 1-1.074-2.632 1.427 1.427 0 0 1 1.857.78 1.42 1.42 0 0 1-.783 1.852Z" fill="url(#I)"/><path d="M23.894 10.653a1.42 1.42 0 1 1-1.074-2.632 1.42 1.42 0 1 1 1.074 2.632Z" fill="url(#J)"/></g><defs><radialGradient id="d" cx="0" cy="0" r="1" gradientUnits="userSpaceOnUse" gradientTransform="rotate(89.068 16.773 39.407) scale(23.2996 42.7093)"><stop stop-color="#F4BAB3"/><stop offset=".765" stop-color="#8D6FC7"/><stop offset=".964" stop-color="#B695E5"/></radialGradient><radialGradient id="e" cx="0" cy="0" r="1" gradientUnits="userSpaceOnUse" gradientTransform="rotate(89.068 29.468 48.213) scale(6.26633 5.70447)"><stop offset=".022" stop-color="#AB5E75"/><stop offset=".252" stop-color="#9F577B"/><stop offset=".668" stop-color="#7F458C"/><stop offset=".994" stop-color="#61349C"/></radialGradient><radialGradient id="g" cx="0" cy="0" r="1" gradientUnits="userSpaceOnUse" gradientTransform="matrix(.18012 11.06883 -20.4448 .3327 24.752 18.63)"><stop offset=".022" stop-color="#8881BC"/><stop offset=".287" stop-color="#8375B7"/><stop offset=".766" stop-color="#7555AA"/><stop offset=".994" stop-color="#6D43A3"/></radialGradient><radialGradient id="h" cx="0" cy="0" r="1" gradientUnits="userSpaceOnUse" gradientTransform="matrix(.19151 11.76864 -11.80414 .19209 54.01 18.21)"><stop offset=".022" stop-color="#8881BC"/><stop offset=".287" stop-color="#8375B7"/><stop offset=".766" stop-color="#7555AA"/><stop offset=".994" stop-color="#6D43A3"/></radialGradient><radialGradient id="i" cx="0" cy="0" r="1" gradientUnits="userSpaceOnUse" gradientTransform="rotate(89.068 24.769 43.163) scale(14.6179 24.635)"><stop offset=".022" stop-color="#725EB0"/><stop offset=".383" stop-color="#6D52AA"/><stop offset=".994" stop-color="#61349C"/></radialGradient><radialGradient id="k" cx="0" cy="0" r="1" gradientUnits="userSpaceOnUse" gradientTransform="matrix(.07076 4.34841 -8.03179 .1307 7.631 19.101)"><stop offset=".022" stop-color="#725EB0"/><stop offset=".383" stop-color="#6D52AA"/><stop offset=".994" stop-color="#61349C"/></radialGradient><radialGradient id="l" cx="0" cy="0" r="1" gradientUnits="userSpaceOnUse" gradientTransform="rotate(89.068 25.483 44.258) scale(8.01261 8.03678)"><stop offset=".022" stop-color="#8881BC"/><stop offset=".287" stop-color="#8375B7"/><stop offset=".766" stop-color="#7555AA"/><stop offset=".994" stop-color="#6D43A3"/></radialGradient><radialGradient id="n" cx="0" cy="0" r="1" gradientUnits="userSpaceOnUse" gradientTransform="rotate(89.068 6.458 25.006) scale(.43135 .43265)"><stop offset=".022" stop-color="#8881BC"/><stop offset=".288" stop-color="#8375B7"/><stop offset=".77" stop-color="#7555AA"/><stop offset="1" stop-color="#6D43A3"/></radialGradient><radialGradient id="p" cx="0" cy="0" r="1" gradientUnits="userSpaceOnUse" gradientTransform="matrix(.00702 .4313 -.43259 .00704 34.066 18.098)"><stop offset=".022" stop-color="#8881BC"/><stop offset=".288" stop-color="#8375B7"/><stop offset=".77" stop-color="#7555AA"/><stop offset="1" stop-color="#6D43A3"/></radialGradient><radialGradient id="q" cx="0" cy="0" r="1" gradientUnits="userSpaceOnUse" gradientTransform="matrix(.00702 .43132 -.43263 .00704 52.394 8.778)"><stop stop-color="#F4BAB3"/><stop offset="1" stop-color="#8D6FC7"/></radialGradient><radialGradient id="r" cx="0" cy="0" r="1" gradientUnits="userSpaceOnUse" gradientTransform="matrix(.00702 .43133 -.43263 .00704 60.186 9.612)"><stop stop-color="#F4BAB3"/><stop offset="1" stop-color="#8D6FC7"/></radialGradient><radialGradient id="s" cx="0" cy="0" r="1" gradientUnits="userSpaceOnUse" gradientTransform="matrix(.00702 .4313 -.4326 .00704 46.336 14.004)"><stop stop-color="#F4BAB3"/><stop offset="1" stop-color="#8D6FC7"/></radialGradient><radialGradient id="t" cx="0" cy="0" r="1" gradientUnits="userSpaceOnUse" gradientTransform="rotate(89.068 11.473 34.532) scale(.43138 .43268)"><stop stop-color="#F4BAB3"/><stop offset="1" stop-color="#8D6FC7"/></radialGradient><radialGradient id="u" cx="0" cy="0" r="1" gradientUnits="userSpaceOnUse" gradientTransform="matrix(.00702 .43132 -.43263 .00704 51.035 28.159)"><stop stop-color="#F4BAB3"/><stop offset="1" stop-color="#8D6FC7"/></radialGradient><radialGradient id="v" cx="0" cy="0" r="1" gradientUnits="userSpaceOnUse" gradientTransform="rotate(89.068 16.596 44.437) scale(.43139 .43268)"><stop stop-color="#F4BAB3"/><stop offset="1" stop-color="#8D6FC7"/></radialGradient><radialGradient id="w" cx="0" cy="0" r="1" gradientUnits="userSpaceOnUse" gradientTransform="matrix(.00702 .4313 -.4326 .00704 65.707 22.723)"><stop stop-color="#F4BAB3"/><stop offset="1" stop-color="#8D6FC7"/></radialGradient><radialGradient id="x" cx="0" cy="0" r="1" gradientUnits="userSpaceOnUse" gradientTransform="matrix(.00702 .4313 -.4326 .00704 66.376 15.441)"><stop stop-color="#F4BAB3"/><stop offset="1" stop-color="#8D6FC7"/></radialGradient><radialGradient id="E" cx="0" cy="0" r="1" gradientUnits="userSpaceOnUse" gradientTransform="matrix(1.39017 3.41164 -3.41922 1.39326 24.942 19.368)"><stop stop-color="#003CEE"/><stop offset=".056" stop-color="#0036D6"/><stop offset=".198" stop-color="#00289E"/><stop offset=".341" stop-color="#001C6D"/><stop offset=".481" stop-color="#001246"/><stop offset=".619" stop-color="#000A27"/><stop offset=".753" stop-color="#000412"/><stop offset=".882" stop-color="#000104"/><stop offset="1"/></radialGradient><radialGradient id="F" cx="0" cy="0" r="1" gradientUnits="userSpaceOnUse" gradientTransform="matrix(1.10967 2.72326 -2.72931 1.11213 58.023 33.72)"><stop stop-color="#FF9A00"/><stop offset=".091" stop-color="#D68100"/><stop offset=".227" stop-color="#9E5F00"/><stop offset=".365" stop-color="#6E4200"/><stop offset=".5" stop-color="#462A00"/><stop offset=".633" stop-color="#271800"/><stop offset=".762" stop-color="#120B00"/><stop offset=".886" stop-color="#040300"/><stop offset="1"/></radialGradient><radialGradient id="G" cx="0" cy="0" r="1" gradientUnits="userSpaceOnUse" gradientTransform="rotate(67.83 25.711 66.682) scale(2.94066 2.94721)"><stop stop-color="#FF9A00"/><stop offset=".091" stop-color="#D68100"/><stop offset=".227" stop-color="#9E5F00"/><stop offset=".365" stop-color="#6E4200"/><stop offset=".5" stop-color="#462A00"/><stop offset=".633" stop-color="#271800"/><stop offset=".762" stop-color="#120B00"/><stop offset=".886" stop-color="#040300"/><stop offset="1"/></radialGradient><radialGradient id="H" cx="0" cy="0" r="1" gradientUnits="userSpaceOnUse" gradientTransform="matrix(.57345 1.40732 -1.41045 .57473 57.741 2.823)"><stop stop-color="#FF9A00"/><stop offset=".091" stop-color="#D68100"/><stop offset=".227" stop-color="#9E5F00"/><stop offset=".365" stop-color="#6E4200"/><stop offset=".5" stop-color="#462A00"/><stop offset=".633" stop-color="#271800"/><stop offset=".762" stop-color="#120B00"/><stop offset=".886" stop-color="#040300"/><stop offset="1"/></radialGradient><radialGradient id="I" cx="0" cy="0" r="1" gradientUnits="userSpaceOnUse" gradientTransform="rotate(67.83 -7.998 32.347) scale(1.4204 1.42357)"><stop stop-color="#003CEE"/><stop offset=".056" stop-color="#0036D6"/><stop offset=".198" stop-color="#00289E"/><stop offset=".341" stop-color="#001C6D"/><stop offset=".481" stop-color="#001246"/><stop offset=".619" stop-color="#000A27"/><stop offset=".753" stop-color="#000412"/><stop offset=".882" stop-color="#000104"/><stop offset="1"/></radialGradient><radialGradient id="J" cx="0" cy="0" r="1" gradientUnits="userSpaceOnUse" gradientTransform="rotate(67.83 4.736 22.04) scale(1.4204 1.42357)"><stop stop-color="#003CEE"/><stop offset=".056" stop-color="#0036D6"/><stop offset=".198" stop-color="#00289E"/><stop offset=".341" stop-color="#001C6D"/><stop offset=".481" stop-color="#001246"/><stop offset=".619" stop-color="#000A27"/><stop offset=".753" stop-color="#000412"/><stop offset=".882" stop-color="#000104"/><stop offset="1"/></radialGradient><linearGradient id="b" x1=".512" y1="33.241" x2="21.36" y2="32.902" gradientUnits="userSpaceOnUse"><stop stop-color="#A43440"/><stop offset="1" stop-color="#C73634"/></linearGradient><linearGradient id="c" x1=".053" y1="5.053" x2="20.901" y2="4.714" gradientUnits="userSpaceOnUse"><stop stop-color="#A43440"/><stop offset="1" stop-color="#C73634"/></linearGradient><linearGradient id="f" x1="77.045" y1="17.798" x2="79.647" y2="17.755" gradientUnits="userSpaceOnUse"><stop stop-color="#FFFF18"/><stop offset="1" stop-color="#FF7400"/></linearGradient><linearGradient id="j" x1="46.668" y1="18.423" x2="64.879" y2="18.127" gradientUnits="userSpaceOnUse"><stop stop-color="#FFFF97"/><stop offset="1" stop-color="#FF7E59"/></linearGradient><linearGradient id="m" x1="30.591" y1="18.077" x2="31.69" y2="18.059" gradientUnits="userSpaceOnUse"><stop stop-color="#8DC7FF"/><stop offset=".316" stop-color="#5C4D86"/></linearGradient><linearGradient id="o" x1="33.302" y1="18.033" x2="34.401" y2="18.015" gradientUnits="userSpaceOnUse"><stop stop-color="#8DC7FF"/><stop offset=".316" stop-color="#5C4D86"/></linearGradient><linearGradient id="y" x1=".349" y1="23.237" x2="23.514" y2="22.86" gradientUnits="userSpaceOnUse"><stop stop-color="#A43411"/><stop offset="1" stop-color="#C73634"/></linearGradient><linearGradient id="z" x1="57.638" y1="33.155" x2="57.66" y2="34.524" gradientUnits="userSpaceOnUse"><stop stop-color="#FFFF18"/><stop offset="1" stop-color="#FF7400"/></linearGradient><linearGradient id="A" x1="57.509" y1="2.184" x2="57.53" y2="3.47" gradientUnits="userSpaceOnUse"><stop stop-color="#FFFF18"/><stop offset="1" stop-color="#FF7400"/></linearGradient><linearGradient id="B" x1="22.729" y1="9.641" x2="23.999" y2="9.621" gradientUnits="userSpaceOnUse"><stop stop-color="#8DC7FF"/><stop offset=".316" stop-color="#5C4D86"/></linearGradient><linearGradient id="C" x1="24.346" y1="27.852" x2="25.616" y2="27.832" gradientUnits="userSpaceOnUse"><stop stop-color="#8DC7FF"/><stop offset=".316" stop-color="#5C4D86"/></linearGradient><linearGradient id="D" x1="24.304" y1="19.177" x2="25.574" y2="19.156" gradientUnits="userSpaceOnUse"><stop stop-color="#8DC7FF"/><stop offset=".316" stop-color="#5C4D86"/></linearGradient><clipPath id="a"><path fill="#fff" transform="rotate(89.068 40.01 41.076)" d="M0 0h35.889v80.44H0z"/></clipPath></defs></svg>